<mxfile host="65bd71144e">
    <diagram id="iCHdq5HEbL-2SejUR_cg" name="Page-1">
        <mxGraphModel dx="832" dy="563" grid="1" gridSize="10" guides="1" tooltips="1" connect="1" arrows="1" fold="1" page="1" pageScale="1" pageWidth="1700" pageHeight="1100" math="0" shadow="0">
            <root>
                <mxCell id="0"/>
                <mxCell id="1" parent="0"/>
                <mxCell id="2" value="" style="shape=image;verticalLabelPosition=bottom;labelBackgroundColor=default;verticalAlign=top;aspect=fixed;imageAspect=0;image=data:image/svg+xml,PHN2ZyB4bWxucz0iaHR0cDovL3d3dy53My5vcmcvMjAwMC9zdmciIGZpbGw9Im5vbmUiIHZpZXdCb3g9IjAgMCA2OTcgMjQ5IiBoZWlnaHQ9IjI0OSIgd2lkdGg9IjY5NyI+CjxyZWN0IHN0cm9rZS13aWR0aD0iMC41IiBzdHJva2U9ImJsYWNrIiBoZWlnaHQ9IjYzLjUiIHdpZHRoPSIxNzkuNSIgeT0iOTUuMjUiIHg9IjUxNy4yNSIvPgo8cGF0aCBmaWxsPSJibGFjayIgZD0iTTUxNy4xNzcgMTI4LjE3N0M1MTcuMjc0IDEyOC4wNzkgNTE3LjI3NCAxMjcuOTIxIDUxNy4xNzcgMTI3LjgyM0w1MTUuNTg2IDEyNi4yMzJDNTE1LjQ4OCAxMjYuMTM1IDUxNS4zMyAxMjYuMTM1IDUxNS4yMzIgMTI2LjIzMkM1MTUuMTM1IDEyNi4zMyA1MTUuMTM1IDEyNi40ODggNTE1LjIzMiAxMjYuNTg2TDUxNi42NDYgMTI4TDUxNS4yMzIgMTI5LjQxNEM1MTUuMTM1IDEyOS41MTIgNTE1LjEzNSAxMjkuNjcgNTE1LjIzMiAxMjkuNzY4QzUxNS4zMyAxMjkuODY1IDUxNS40ODggMTI5Ljg2NSA1MTUuNTg2IDEyOS43NjhMNTE3LjE3NyAxMjguMTc3Wk01MTcgMTI3Ljc1SDAuNVYxMjguMjVINTE3VjEyNy43NVoiLz4KPHBhdGggZmlsbD0iYmxhY2siIGQ9Ik02OC4yNTQ4IDFMNjguNDc2IDAuODgzNTUyTDY4LjQwNTcgMC43NUg2OC4yNTQ4VjFaTTEzMi45MjYgMTI0LjIzOUMxMzMuMDU4IDEyNC4yOCAxMzMuMTk4IDEyNC4yMDYgMTMzLjIzOSAxMjQuMDc0TDEzMy45MDYgMTIxLjkyNUMxMzMuOTQ2IDEyMS43OTMgMTMzLjg3MyAxMjEuNjUzIDEzMy43NDEgMTIxLjYxMkMxMzMuNjA5IDEyMS41NzEgMTMzLjQ2OSAxMjEuNjQ1IDEzMy40MjggMTIxLjc3N0wxMzIuODM1IDEyMy42ODdMMTMwLjkyNSAxMjMuMDk0QzEzMC43OTMgMTIzLjA1NCAxMzAuNjUzIDEyMy4xMjcgMTMwLjYxMiAxMjMuMjU5QzEzMC41NzEgMTIzLjM5MSAxMzAuNjQ1IDEyMy41MzEgMTMwLjc3NyAxMjMuNTcyTDEzMi45MjYgMTI0LjIzOVpNMSAxLjI1SDY4LjI1NDhWMC43NUgxVjEuMjVaTTY4LjAzMzUgMS4xMTY0NUwxMzIuNzc5IDEyNC4xMTZMMTMzLjIyMSAxMjMuODg0TDY4LjQ3NiAwLjg4MzU1Mkw2OC4wMzM1IDEuMTE2NDVaIi8+CjxwYXRoIGZpbGw9ImJsYWNrIiBkPSJNMTQ5LjIxNyAyNDhMMTQ5LjQzOCAyNDguMTE2TDE0OS4zNjggMjQ4LjI1SDE0OS4yMTdWMjQ4Wk0yMTEuOTI1IDEyNy43NjFDMjEyLjA1NyAxMjcuNzIgMjEyLjE5NyAxMjcuNzk0IDIxMi4yMzkgMTI3LjkyNUwyMTIuOTExIDEzMC4wNzNDMjEyLjk1MiAxMzAuMjA0IDIxMi44NzkgMTMwLjM0NSAyMTIuNzQ3IDEzMC4zODZDMjEyLjYxNSAxMzAuNDI3IDIxMi40NzUgMTMwLjM1NCAyMTIuNDM0IDEzMC4yMjJMMjExLjgzNiAxMjguMzEzTDIwOS45MjcgMTI4LjkxMUMyMDkuNzk2IDEyOC45NTIgMjA5LjY1NSAxMjguODc5IDIwOS42MTQgMTI4Ljc0N0MyMDkuNTczIDEyOC42MTUgMjA5LjY0NiAxMjguNDc1IDIwOS43NzggMTI4LjQzNEwyMTEuOTI1IDEyNy43NjFaTTg0IDI0Ny43NUgxNDkuMjE3VjI0OC4yNUg4NFYyNDcuNzVaTTE0OC45OTUgMjQ3Ljg4NEwyMTEuNzc4IDEyNy44ODRMMjEyLjIyMiAxMjguMTE2TDE0OS40MzggMjQ4LjExNkwxNDguOTk1IDI0Ny44ODRaIi8+CjxwYXRoIGZpbGw9ImJsYWNrIiBkPSJNMjI3LjI1NSAxTDIyNy40NzYgMC44ODM1NTJMMjI3LjQwNiAwLjc1SDIyNy4yNTVWMVpNMjkxLjkyNiAxMjQuMjM5QzI5Mi4wNTggMTI0LjI4IDI5Mi4xOTggMTI0LjIwNiAyOTIuMjM5IDEyNC4wNzRMMjkyLjkwNiAxMjEuOTI1QzI5Mi45NDYgMTIxLjc5MyAyOTIuODczIDEyMS42NTMgMjkyLjc0MSAxMjEuNjEyQzI5Mi42MDkgMTIxLjU3MSAyOTIuNDY5IDEyMS42NDUgMjkyLjQyOCAxMjEuNzc3TDI5MS44MzUgMTIzLjY4N0wyODkuOTI1IDEyMy4wOTRDMjg5Ljc5MyAxMjMuMDU0IDI4OS42NTMgMTIzLjEyNyAyODkuNjEyIDEyMy4yNTlDMjg5LjU3MSAxMjMuMzkxIDI4OS42NDUgMTIzLjUzMSAyODkuNzc3IDEyMy41NzJMMjkxLjkyNiAxMjQuMjM5Wk0xNjAgMS4yNUgyMjcuMjU1VjAuNzVIMTYwVjEuMjVaTTIyNy4wMzQgMS4xMTY0NUwyOTEuNzc5IDEyNC4xMTZMMjkyLjIyMSAxMjMuODg0TDIyNy40NzYgMC44ODM1NTJMMjI3LjAzNCAxLjExNjQ1WiIvPgo8cGF0aCBmaWxsPSJibGFjayIgZD0iTTMwNC4yMTcgMjQ4TDMwNC40MzggMjQ4LjExNkwzMDQuMzY4IDI0OC4yNUgzMDQuMjE3VjI0OFpNMzY2LjkyNSAxMjcuNzYxQzM2Ny4wNTcgMTI3LjcyIDM2Ny4xOTcgMTI3Ljc5NCAzNjcuMjM5IDEyNy45MjVMMzY3LjkxMSAxMzAuMDczQzM2Ny45NTIgMTMwLjIwNCAzNjcuODc5IDEzMC4zNDUgMzY3Ljc0NyAxMzAuMzg2QzM2Ny42MTUgMTMwLjQyNyAzNjcuNDc1IDEzMC4zNTQgMzY3LjQzNCAxMzAuMjIyTDM2Ni44MzYgMTI4LjMxM0wzNjQuOTI3IDEyOC45MTFDMzY0Ljc5NiAxMjguOTUyIDM2NC42NTUgMTI4Ljg3OSAzNjQuNjE0IDEyOC43NDdDMzY0LjU3MyAxMjguNjE1IDM2NC42NDYgMTI4LjQ3NSAzNjQuNzc4IDEyOC40MzRMMzY2LjkyNSAxMjcuNzYxWk0yMzkgMjQ3Ljc1SDMwNC4yMTdWMjQ4LjI1SDIzOVYyNDcuNzVaTTMwMy45OTUgMjQ3Ljg4NEwzNjYuNzc4IDEyNy44ODRMMzY3LjIyMiAxMjguMTE2TDMwNC40MzggMjQ4LjExNkwzMDMuOTk1IDI0Ny44ODRaIi8+CjxwYXRoIGZpbGw9ImJsYWNrIiBkPSJNMzg2LjI1NSAxTDM4Ni40NzYgMC44ODM1NTJMMzg2LjQwNiAwLjc1SDM4Ni4yNTVWMVpNNDUwLjkyNiAxMjQuMjM5QzQ1MS4wNTggMTI0LjI4IDQ1MS4xOTggMTI0LjIwNiA0NTEuMjM5IDEyNC4wNzRMNDUxLjkwNiAxMjEuOTI1QzQ1MS45NDYgMTIxLjc5MyA0NTEuODczIDEyMS42NTMgNDUxLjc0MSAxMjEuNjEyQzQ1MS42MDkgMTIxLjU3MSA0NTEuNDY5IDEyMS42NDUgNDUxLjQyOCAxMjEuNzc3TDQ1MC44MzUgMTIzLjY4N0w0NDguOTI1IDEyMy4wOTRDNDQ4Ljc5MyAxMjMuMDU0IDQ0OC42NTMgMTIzLjEyNyA0NDguNjEyIDEyMy4yNTlDNDQ4LjU3MSAxMjMuMzkxIDQ0OC42NDUgMTIzLjUzMSA0NDguNzc3IDEyMy41NzJMNDUwLjkyNiAxMjQuMjM5Wk0zMTkgMS4yNUgzODYuMjU1VjAuNzVIMzE5VjEuMjVaTTM4Ni4wMzQgMS4xMTY0NUw0NTAuNzc5IDEyNC4xMTZMNDUxLjIyMSAxMjMuODg0TDM4Ni40NzYgMC44ODM1NTJMMzg2LjAzNCAxLjExNjQ1WiIvPgo8L3N2Zz4=;" vertex="1" parent="1">
                    <mxGeometry x="130" y="160" width="520" height="186" as="geometry"/>
                </mxCell>
            </root>
        </mxGraphModel>
    </diagram>
</mxfile>